<svg width="35" height="29" viewBox="0 0 35 29" fill="none" xmlns="http://www.w3.org/2000/svg">
<path fill-rule="evenodd" clip-rule="evenodd" d="M32.8685 10.3524C32.7831 10.3932 32.6965 10.4325 32.6087 10.4703C29.0322 12.0089 24.8855 10.3568 23.3469 6.78029C22.7205 5.32418 22.623 3.77357 22.9688 2.34293C19.5729 3.96677 18.0377 7.99802 19.5386 11.4868C21.0772 15.0633 25.2239 16.7154 28.8004 15.1768C30.9208 14.2646 32.3648 12.4357 32.8685 10.3524Z" fill="url(#paint0_radial_401_84)"/>
<g filter="url(#filter0_ii_401_84)">
<path fill-rule="evenodd" clip-rule="evenodd" d="M19.1225 28.3372H27.4687C31.6229 28.3372 34.9906 24.9695 34.9906 20.8153C34.9906 16.6611 31.6229 13.2935 27.4687 13.2935H27.0566C25.5984 13.2935 24.2322 13.6868 23.0581 14.3732C21.5318 9.85152 17.2555 6.59589 12.2189 6.59589H11.6522C5.64846 6.59589 0.781513 11.4628 0.781513 17.4665C0.781513 23.4702 5.64847 28.3372 11.6522 28.3372L19.1225 28.3372Z" fill="white"/>
</g>
<defs>
<filter id="filter0_ii_401_84" x="-17.2185" y="-8.40411" width="60.2091" height="47.7413" filterUnits="userSpaceOnUse" color-interpolation-filters="sRGB">
<feFlood flood-opacity="0" result="BackgroundImageFix"/>
<feBlend mode="normal" in="SourceGraphic" in2="BackgroundImageFix" result="shape"/>
<feColorMatrix in="SourceAlpha" type="matrix" values="0 0 0 0 0 0 0 0 0 0 0 0 0 0 0 0 0 0 127 0" result="hardAlpha"/>
<feOffset dx="8" dy="-15"/>
<feGaussianBlur stdDeviation="15"/>
<feComposite in2="hardAlpha" operator="arithmetic" k2="-1" k3="1"/>
<feColorMatrix type="matrix" values="0 0 0 0 0 0 0 0 0 0 0 0 0 0 0 0 0 0 0.2 0"/>
<feBlend mode="normal" in2="shape" result="effect1_innerShadow_401_84"/>
<feColorMatrix in="SourceAlpha" type="matrix" values="0 0 0 0 0 0 0 0 0 0 0 0 0 0 0 0 0 0 127 0" result="hardAlpha"/>
<feOffset dx="-18" dy="11"/>
<feGaussianBlur stdDeviation="15"/>
<feComposite in2="hardAlpha" operator="arithmetic" k2="-1" k3="1"/>
<feColorMatrix type="matrix" values="0 0 0 0 1 0 0 0 0 1 0 0 0 0 1 0 0 0 1 0"/>
<feBlend mode="normal" in2="effect1_innerShadow_401_84" result="effect2_innerShadow_401_84"/>
</filter>
<radialGradient id="paint0_radial_401_84" cx="0" cy="0" r="1" gradientUnits="userSpaceOnUse" gradientTransform="translate(26.1714 4.45496) rotate(105.896) scale(14.0448 13.8244)">
<stop stop-color="#FFF72C"/>
<stop offset="1" stop-color="#DF7800"/>
</radialGradient>
</defs>
</svg>
