<svg width="38" height="28" viewBox="0 0 38 28" fill="none" xmlns="http://www.w3.org/2000/svg">
<g clip-path="url(#clip0_531_18)">
<path fill-rule="evenodd" clip-rule="evenodd" d="M33.8685 9.35236C33.7831 9.39321 33.6965 9.43253 33.6088 9.47029C30.0322 11.0089 25.8856 9.35683 24.347 5.78029C23.7206 4.32418 23.623 2.77357 23.9689 1.34293C20.573 2.96677 19.0378 6.99802 20.5387 10.4868C22.0773 14.0633 26.2239 15.7154 29.8005 14.1768C31.9209 13.2646 33.3649 11.4357 33.8685 9.35236Z" fill="url(#paint0_radial_531_18)"/>
<g filter="url(#filter0_ii_531_18)">
<path fill-rule="evenodd" clip-rule="evenodd" d="M20.1225 27.3372H28.4687C32.6229 27.3372 35.9906 23.9695 35.9906 19.8153C35.9906 15.6611 32.6229 12.2935 28.4687 12.2935H28.0566C26.5984 12.2935 25.2322 12.6868 24.0581 13.3732C22.5318 8.85152 18.2555 5.59589 13.2189 5.59589H12.6522C6.64846 5.59589 1.78151 10.4628 1.78151 16.4665C1.78151 22.4702 6.64847 27.3372 12.6522 27.3372L20.1225 27.3372Z" fill="white"/>
</g>
</g>
<defs>
<filter id="filter0_ii_531_18" x="-16.2185" y="-9.40411" width="60.2091" height="47.7413" filterUnits="userSpaceOnUse" color-interpolation-filters="sRGB">
<feFlood flood-opacity="0" result="BackgroundImageFix"/>
<feBlend mode="normal" in="SourceGraphic" in2="BackgroundImageFix" result="shape"/>
<feColorMatrix in="SourceAlpha" type="matrix" values="0 0 0 0 0 0 0 0 0 0 0 0 0 0 0 0 0 0 127 0" result="hardAlpha"/>
<feOffset dx="8" dy="-15"/>
<feGaussianBlur stdDeviation="15"/>
<feComposite in2="hardAlpha" operator="arithmetic" k2="-1" k3="1"/>
<feColorMatrix type="matrix" values="0 0 0 0 0 0 0 0 0 0 0 0 0 0 0 0 0 0 0.2 0"/>
<feBlend mode="normal" in2="shape" result="effect1_innerShadow_531_18"/>
<feColorMatrix in="SourceAlpha" type="matrix" values="0 0 0 0 0 0 0 0 0 0 0 0 0 0 0 0 0 0 127 0" result="hardAlpha"/>
<feOffset dx="-18" dy="11"/>
<feGaussianBlur stdDeviation="15"/>
<feComposite in2="hardAlpha" operator="arithmetic" k2="-1" k3="1"/>
<feColorMatrix type="matrix" values="0 0 0 0 1 0 0 0 0 1 0 0 0 0 1 0 0 0 1 0"/>
<feBlend mode="normal" in2="effect1_innerShadow_531_18" result="effect2_innerShadow_531_18"/>
</filter>
<radialGradient id="paint0_radial_531_18" cx="0" cy="0" r="1" gradientUnits="userSpaceOnUse" gradientTransform="translate(27.1714 3.45496) rotate(105.896) scale(14.0448 13.8244)">
<stop stop-color="#FFF72C"/>
<stop offset="1" stop-color="#DF7800"/>
</radialGradient>
<clipPath id="clip0_531_18">
<rect width="38" height="28" fill="white"/>
</clipPath>
</defs>
</svg>
