<svg width="24" height="24" viewBox="0 0 24 24" fill="none" xmlns="http://www.w3.org/2000/svg">
<path d="M7.90778 9.00996C8.92419 8.59867 9.46792 7.46912 9.05502 6.44871C8.64332 5.43231 5.87944 3.99982 5.87944 3.99982C5.87944 3.99982 4.88741 6.95295 5.29884 7.96908C5.71188 8.98963 6.88843 9.42262 7.90778 9.00982V9.00996Z" fill="white"/>
<path d="M12.1647 15.0288C12.1647 15.0288 11.1444 17.9035 11.5557 18.9195C11.9685 19.9389 13.1422 20.3742 14.1617 19.9614C15.181 19.5488 15.7213 18.4196 15.3087 17.4003C14.8972 16.3839 12.1647 15.0287 12.1647 15.0287V15.0288Z" fill="white"/>
<path d="M5.78 13.8795C5.78 13.8795 4.66064 16.9759 5.10379 18.0706C5.54802 19.168 6.83747 19.6473 7.93502 19.2028C9.02962 18.7597 9.54271 17.5511 9.09833 16.4534C8.65488 15.359 5.78 13.8796 5.78 13.8796V13.8795Z" fill="white"/>
<path d="M12.1407 12.9415C12.7656 12.6885 13.0139 11.9518 12.7921 11.404C12.5379 10.776 10.9367 9.96759 10.9367 9.96759C10.9367 9.96759 10.3481 11.6626 10.6022 12.2909C10.824 12.8384 11.5139 13.1953 12.1407 12.9415H12.1407Z" fill="white"/>
<path d="M18.2747 12.6812C18.0205 12.0533 16.4193 11.2448 16.4193 11.2448C16.4193 11.2448 15.8307 12.9399 16.0849 13.5681C16.3067 14.1158 16.9967 14.4727 17.6233 14.219C18.2483 13.9657 18.4968 13.229 18.2747 12.6812L18.2747 12.6812Z" fill="white"/>
<path d="M17.0525 6.63634C16.641 5.62008 13.877 4.18759 13.877 4.18759C13.877 4.18759 12.885 7.14071 13.2964 8.15684C13.7096 9.17738 14.8861 9.6101 15.9054 9.19747C16.9215 8.78632 17.4655 7.65702 17.0525 6.63624V6.63634Z" fill="white"/>
<path d="M19.8018 18.7413C19.5476 18.1133 17.9464 17.3049 17.9464 17.3049C17.9464 17.3049 17.3578 18.9999 17.612 19.6282C17.8338 20.1758 18.5236 20.5327 19.1504 20.2788C19.7752 20.0258 20.0236 19.2891 19.8018 18.7413H19.8018Z" fill="white"/>
</svg>
