<svg width="25" height="24" viewBox="0 0 25 24" fill="none" xmlns="http://www.w3.org/2000/svg">
<path d="M4.43281 10.3757H12.1101C13.0389 10.3824 13.9375 10.0459 14.6334 9.4306C15.3293 8.81535 15.7736 7.96475 15.8808 7.04212C15.9842 6.00591 15.6408 4.97466 14.9366 4.20739C14.2375 3.43983 13.2479 3.00163 12.2097 2.99988H10.1381C9.8049 2.99988 9.49701 3.17773 9.33038 3.46623C9.16377 3.75485 9.16377 4.11043 9.33038 4.39904C9.49699 4.68753 9.8049 4.8654 10.1381 4.8654H12.2097C12.7347 4.86607 13.234 5.09307 13.58 5.48802C13.9258 5.88299 14.0849 6.40784 14.0163 6.92843C13.9476 7.37507 13.7191 7.78156 13.3732 8.07231C13.0274 8.3632 12.5877 8.51843 12.1359 8.50945H4.43264C4.09942 8.50945 3.79153 8.68717 3.6249 8.9758C3.45827 9.26443 3.45829 9.61986 3.6249 9.90848C3.79151 10.1971 4.09942 10.3748 4.43264 10.3748L4.43281 10.3757Z" fill="white"/>
<path d="M21.4834 16.5293C21.3762 15.6067 20.9321 14.7562 20.2363 14.1411C19.5404 13.5258 18.642 13.1891 17.7132 13.1957H11.3001C10.9668 13.1957 10.659 13.3734 10.4923 13.6621C10.3257 13.9507 10.3257 14.3063 10.4923 14.5947C10.6589 14.8834 10.9668 15.0611 11.3001 15.0611H17.7386C18.1903 15.0521 18.63 15.2075 18.9758 15.4982C19.3218 15.7891 19.5502 16.1956 19.6189 16.6421C19.6875 17.1627 19.5285 17.6875 19.1826 18.0825C18.8366 18.4776 18.3374 18.7045 17.8124 18.7053H15.74C15.4067 18.7053 15.0989 18.883 14.9322 19.1716C14.7656 19.4601 14.7656 19.8157 14.9322 20.1043C15.0988 20.3929 15.4067 20.5707 15.74 20.5707H17.8114C18.8501 20.5697 19.8405 20.1318 20.54 19.3641C21.2439 18.5967 21.587 17.5655 21.4832 16.5294L21.4834 16.5293Z" fill="white"/>
<path d="M9.24479 14.1293C9.24466 13.8818 9.14635 13.6446 8.97157 13.4696C8.79666 13.2945 8.55946 13.196 8.31212 13.1957H4.43269C4.09948 13.1957 3.79158 13.3734 3.62496 13.6621C3.45835 13.9507 3.45835 14.3063 3.62496 14.5947C3.79156 14.8834 4.09947 15.0611 4.43269 15.0611H8.31212C8.55922 15.0608 8.79613 14.9625 8.97092 14.7879C9.14571 14.6132 9.24427 14.3764 9.24481 14.1294L9.24479 14.1293Z" fill="white"/>
<path d="M16.2052 10.9781C16.2848 10.9781 16.3611 10.9465 16.4173 10.8903L17.0495 10.2581H17.0494C17.9182 10.4304 18.8143 10.1413 19.4188 9.49407C20.0234 8.84679 20.2505 7.93314 20.0194 7.07812C19.9918 6.9742 19.9106 6.89303 19.8067 6.86544C18.9517 6.63442 18.038 6.86156 17.3907 7.46599C16.7435 8.07056 16.4544 8.96668 16.6267 9.83545L15.9931 10.4657C15.9074 10.5516 15.8817 10.6805 15.9281 10.7926C15.9746 10.9047 16.0839 10.9777 16.2052 10.9779L16.2052 10.9781Z" fill="white"/>
<path d="M9.73133 16.3243L9.09917 15.6921C8.98145 15.5784 8.79435 15.5802 8.67862 15.6959C8.56289 15.8116 8.56129 15.9987 8.675 16.1164L9.30676 16.7486V16.7485C9.14403 17.5851 9.40573 18.4479 10.0057 19.0531C10.6297 19.6706 12.0245 20.1949 12.6997 19.5031H12.6999C12.9306 18.6484 12.7036 17.7352 12.0996 17.088C11.4954 16.4407 10.5998 16.1516 9.73132 16.3231L9.73133 16.3243Z" fill="white"/>
</svg>
